<?xml version="1.0" standalone="no"?><!DOCTYPE svg PUBLIC "-//W3C//DTD SVG 1.1//EN" "http://www.w3.org/Graphics/SVG/1.1/DTD/svg11.dtd"><svg t="1609998338411" class="icon" viewBox="0 0 1365 1024" version="1.1" xmlns="http://www.w3.org/2000/svg" p-id="2921" xmlns:xlink="http://www.w3.org/1999/xlink" width="266.6015625" height="200"><defs><style type="text/css"></style></defs><path d="M75.851852 0h1213.629629a75.851852 75.851852 0 0 1 75.851852 75.851852v872.296296a75.851852 75.851852 0 0 1-75.851852 75.851852H75.851852a75.851852 75.851852 0 0 1-75.851852-75.851852V75.851852a75.851852 75.851852 0 0 1 75.851852-75.851852z" fill="#F1F4F6" p-id="2922"></path><path d="M894.520889 338.071704a75.851852 75.851852 0 0 1 104.239407-2.844445l3.034074 2.844445L1365.333333 701.62963v246.518518a75.851852 75.851852 0 0 1-75.851852 75.851852H208.57363l685.947259-685.928296z" fill="#E3E6EC" p-id="2923"></path><path d="M259.26163 527.701333a75.851852 75.851852 0 0 1 104.239407-2.844444l3.034074 2.844444L862.814815 1024H75.851852a75.851852 75.851852 0 0 1-75.851852-75.851852v-161.185185l259.26163-259.26163z" fill="#EAEDF2" p-id="2924"></path></svg>