<?xml version="1.0" standalone="no"?><!DOCTYPE svg PUBLIC "-//W3C//DTD SVG 1.1//EN" "http://www.w3.org/Graphics/SVG/1.1/DTD/svg11.dtd"><svg t="1609998493529" class="icon" viewBox="0 0 1457 1024" version="1.1" xmlns="http://www.w3.org/2000/svg" p-id="3129" xmlns:xlink="http://www.w3.org/1999/xlink" width="284.5703125" height="200"><defs><style type="text/css"></style></defs><path d="M1140.185 437.17c-155.57 25.6-273.723 159.507-273.723 320.984 0 35.446 5.907 68.923 15.753 98.461l-5.907 9.847H39.385c-45.293-13.785-49.231-39.385-9.847-78.77s102.4-104.369 187.077-196.923c19.693-25.6 43.323-25.6 68.923 0l88.616 88.616c19.692 19.692 39.384 13.784 59.077-19.693s157.538-230.4 413.538-590.769c33.477-45.292 63.016-45.292 88.616 0s94.523 167.385 206.769 364.308l-1.97 3.938zM114.215 216.614c-59.077 0-108.307-47.261-108.307-108.307C5.908 49.23 55.138 0 114.215 0s108.308 49.23 108.308 108.308-49.23 108.307-108.308 108.307z" fill="#DBDBDB" p-id="3130"></path><path d="M1201.23 512c141.785 0 256 114.215 256 256s-114.215 256-256 256-256-114.215-256-256 114.216-256 256-256z m-19.692 137.846v157.539c0 11.815 7.877 19.692 19.693 19.692s19.692-9.846 19.692-19.692V649.846c0-11.815-7.877-19.692-19.692-19.692s-19.693 9.846-19.693 19.692z m19.693 256c11.815 0 19.692-7.877 19.692-19.692s-7.877-19.692-19.692-19.692-19.693 7.876-19.693 19.692 7.877 19.692 19.693 19.692z" fill="#DBDBDB" p-id="3131"></path></svg>